<svg width="17" height="17" viewBox="0 0 17 17" fill="none" xmlns="http://www.w3.org/2000/svg">
<path d="M2.97857 8.28809C2.97801 6.95588 3.41168 5.7249 4.14584 4.72899M2.97857 8.28809C2.97912 9.61679 3.41152 10.8444 4.143 11.8384M2.97857 8.28809L14.9786 8.2831M4.14584 4.72899C5.23781 3.24768 6.99457 2.28642 8.97607 2.2856M4.14584 4.72899C4.96309 5.23934 5.63059 5.84897 6.00678 6.75611C6.208 7.24133 6.31168 7.76143 6.3119 8.28672C6.31212 8.81201 6.20887 9.3322 6.00805 9.81758C5.62503 10.7434 4.95895 11.3036 4.143 11.8384M8.97607 2.2856C10.9618 2.28477 12.7226 3.24868 13.8153 4.73445M8.97607 2.2856L8.98106 14.2856M8.98106 14.2856C6.99605 14.2864 5.23578 13.3232 4.143 11.8384M8.98106 14.2856C10.9587 14.2848 12.7125 13.3272 13.8049 11.8508M13.8153 4.73445C14.5461 5.72809 14.978 6.95512 14.9786 8.2831M13.8153 4.73445C12.9977 5.26713 12.3322 5.82767 11.9491 6.75361C11.7483 7.239 11.645 7.75918 11.6452 8.28447C11.6454 8.80976 11.7491 9.32986 11.9503 9.81508C12.3367 10.7466 13.0099 11.2821 13.8049 11.8508M14.9786 8.2831C14.9791 9.61916 14.5429 10.8534 13.8049 11.8508" stroke="white" stroke-linecap="round" stroke-linejoin="round"/>
</svg>
